<svg width="95" height="52" viewBox="0 0 95 52" fill="none" xmlns="http://www.w3.org/2000/svg">
<path d="M7.78977 25.2386C6.58523 25.2386 5.51136 25.017 4.56818 24.5739C3.63068 24.1307 2.88636 23.5199 2.33523 22.7415C1.78409 21.9631 1.49716 21.071 1.47443 20.0653H5.05398C5.09375 20.7415 5.37784 21.2898 5.90625 21.7102C6.43466 22.1307 7.0625 22.3409 7.78977 22.3409C8.36932 22.3409 8.88068 22.2131 9.32386 21.9574C9.77273 21.696 10.1222 21.3352 10.3722 20.875C10.6278 20.4091 10.7557 19.875 10.7557 19.2727C10.7557 18.6591 10.625 18.1193 10.3636 17.6534C10.108 17.1875 9.75284 16.8239 9.2983 16.5625C8.84375 16.3011 8.32386 16.1676 7.73864 16.1619C7.22727 16.1619 6.73011 16.267 6.24716 16.4773C5.76989 16.6875 5.39773 16.9744 5.13068 17.3381L1.84943 16.75L2.67614 7.54545H13.3466V10.5625H5.71875L5.26705 14.9347H5.36932C5.67614 14.5028 6.1392 14.1449 6.75852 13.8608C7.37784 13.5767 8.07102 13.4347 8.83807 13.4347C9.8892 13.4347 10.8267 13.6818 11.6506 14.1761C12.4744 14.6705 13.125 15.3494 13.6023 16.2131C14.0795 17.071 14.3153 18.0597 14.3097 19.179C14.3153 20.3551 14.0426 21.4006 13.4915 22.3153C12.946 23.2244 12.1818 23.9403 11.1989 24.4631C10.2216 24.9801 9.08523 25.2386 7.78977 25.2386ZM20.3011 22.6136L20.2074 23.5511C20.1335 24.3011 19.9915 25.0483 19.7812 25.7926C19.5767 26.5426 19.3608 27.2216 19.1335 27.8295C18.9119 28.4375 18.733 28.9148 18.5966 29.2614H16.2443C16.3295 28.9261 16.446 28.4574 16.5938 27.8551C16.7415 27.2585 16.8807 26.5881 17.0114 25.8438C17.142 25.0994 17.2244 24.3409 17.2585 23.5682L17.3011 22.6136H20.3011ZM29.7273 25.3835C28.2614 25.3778 27 25.017 25.9432 24.3011C24.892 23.5852 24.0824 22.5483 23.5142 21.1903C22.9517 19.8324 22.6733 18.1989 22.679 16.2898C22.679 14.3864 22.9602 12.7642 23.5227 11.4233C24.0909 10.0824 24.9006 9.0625 25.9517 8.36364C27.0085 7.65909 28.267 7.30682 29.7273 7.30682C31.1875 7.30682 32.4432 7.65909 33.4943 8.36364C34.5511 9.06818 35.3636 10.0909 35.9318 11.4318C36.5 12.767 36.7813 14.3864 36.7756 16.2898C36.7756 18.2045 36.4915 19.8409 35.9233 21.1989C35.3608 22.5568 34.554 23.5937 33.5028 24.3097C32.4517 25.0256 31.1932 25.3835 29.7273 25.3835ZM29.7273 22.3239C30.7273 22.3239 31.5256 21.821 32.1222 20.8153C32.7188 19.8097 33.0142 18.3011 33.0085 16.2898C33.0085 14.9659 32.8722 13.8636 32.5994 12.983C32.3324 12.1023 31.9517 11.4403 31.4574 10.9972C30.9688 10.554 30.392 10.3324 29.7273 10.3324C28.733 10.3324 27.9375 10.8295 27.3409 11.8239C26.7443 12.8182 26.4432 14.3068 26.4375 16.2898C26.4375 17.6307 26.571 18.75 26.8381 19.6477C27.1108 20.5398 27.4943 21.2102 27.9886 21.6591C28.483 22.1023 29.0625 22.3239 29.7273 22.3239ZM46.2507 25.3835C44.7848 25.3778 43.5234 25.017 42.4666 24.3011C41.4155 23.5852 40.6058 22.5483 40.0376 21.1903C39.4751 19.8324 39.1967 18.1989 39.2024 16.2898C39.2024 14.3864 39.4837 12.7642 40.0462 11.4233C40.6143 10.0824 41.424 9.0625 42.4751 8.36364C43.532 7.65909 44.7905 7.30682 46.2507 7.30682C47.7109 7.30682 48.9666 7.65909 50.0178 8.36364C51.0746 9.06818 51.8871 10.0909 52.4553 11.4318C53.0234 12.767 53.3047 14.3864 53.299 16.2898C53.299 18.2045 53.0149 19.8409 52.4467 21.1989C51.8842 22.5568 51.0774 23.5937 50.0263 24.3097C48.9751 25.0256 47.7166 25.3835 46.2507 25.3835ZM46.2507 22.3239C47.2507 22.3239 48.049 21.821 48.6456 20.8153C49.2422 19.8097 49.5376 18.3011 49.532 16.2898C49.532 14.9659 49.3956 13.8636 49.1229 12.983C48.8558 12.1023 48.4751 11.4403 47.9808 10.9972C47.4922 10.554 46.9155 10.3324 46.2507 10.3324C45.2564 10.3324 44.4609 10.8295 43.8643 11.8239C43.2678 12.8182 42.9666 14.3068 42.9609 16.2898C42.9609 17.6307 43.0945 18.75 43.3615 19.6477C43.6342 20.5398 44.0178 21.2102 44.5121 21.6591C45.0064 22.1023 45.5859 22.3239 46.2507 22.3239ZM62.7741 25.3835C61.3082 25.3778 60.0469 25.017 58.9901 24.3011C57.9389 23.5852 57.1293 22.5483 56.5611 21.1903C55.9986 19.8324 55.7202 18.1989 55.7259 16.2898C55.7259 14.3864 56.0071 12.7642 56.5696 11.4233C57.1378 10.0824 57.9474 9.0625 58.9986 8.36364C60.0554 7.65909 61.3139 7.30682 62.7741 7.30682C64.2344 7.30682 65.4901 7.65909 66.5412 8.36364C67.598 9.06818 68.4105 10.0909 68.9787 11.4318C69.5469 12.767 69.8281 14.3864 69.8224 16.2898C69.8224 18.2045 69.5384 19.8409 68.9702 21.1989C68.4077 22.5568 67.6009 23.5937 66.5497 24.3097C65.4986 25.0256 64.2401 25.3835 62.7741 25.3835ZM62.7741 22.3239C63.7741 22.3239 64.5724 21.821 65.169 20.8153C65.7656 19.8097 66.0611 18.3011 66.0554 16.2898C66.0554 14.9659 65.919 13.8636 65.6463 12.983C65.3793 12.1023 64.9986 11.4403 64.5043 10.9972C64.0156 10.554 63.4389 10.3324 62.7741 10.3324C61.7798 10.3324 60.9844 10.8295 60.3878 11.8239C59.7912 12.8182 59.4901 14.3068 59.4844 16.2898C59.4844 17.6307 59.6179 18.75 59.8849 19.6477C60.1577 20.5398 60.5412 21.2102 61.0355 21.6591C61.5298 22.1023 62.1094 22.3239 62.7741 22.3239ZM77.6697 22.3409V10.2727H80.7209V22.3409H77.6697ZM73.1612 17.8324V14.7812H85.2294V17.8324H73.1612Z" fill="white"/>
<path d="M1.05682 48V39.2727H4.00568C4.69034 39.2727 5.25 39.3963 5.68466 39.6435C6.12216 39.8878 6.44602 40.2188 6.65625 40.6364C6.86648 41.054 6.97159 41.5199 6.97159 42.0341C6.97159 42.5483 6.86648 43.0156 6.65625 43.4361C6.44886 43.8565 6.12784 44.1918 5.69318 44.4418C5.25852 44.6889 4.7017 44.8125 4.02273 44.8125H1.90909V43.875H3.98864C4.45739 43.875 4.83381 43.794 5.1179 43.6321C5.40199 43.4702 5.60795 43.2514 5.7358 42.9759C5.86648 42.6974 5.93182 42.3835 5.93182 42.0341C5.93182 41.6847 5.86648 41.3722 5.7358 41.0966C5.60795 40.821 5.40057 40.6051 5.11364 40.4489C4.8267 40.2898 4.44602 40.2102 3.97159 40.2102H2.11364V48H1.05682ZM8.14134 48H7.03338L10.2379 39.2727H11.3288L14.5334 48H13.4254L10.8175 40.6534H10.7493L8.14134 48ZM8.55043 44.5909H13.0163V45.5284H8.55043V44.5909ZM22.5053 42H21.4485C21.386 41.696 21.2766 41.429 21.1204 41.1989C20.967 40.9688 20.7795 40.7756 20.5579 40.6193C20.3391 40.4602 20.0962 40.3409 19.8292 40.2614C19.5621 40.1818 19.2837 40.142 18.994 40.142C18.4656 40.142 17.9869 40.2756 17.5579 40.5426C17.1317 40.8097 16.7923 41.2031 16.5394 41.723C16.2894 42.2429 16.1644 42.8807 16.1644 43.6364C16.1644 44.392 16.2894 45.0298 16.5394 45.5497C16.7923 46.0696 17.1317 46.4631 17.5579 46.7301C17.9869 46.9972 18.4656 47.1307 18.994 47.1307C19.2837 47.1307 19.5621 47.0909 19.8292 47.0114C20.0962 46.9318 20.3391 46.8139 20.5579 46.6577C20.7795 46.4986 20.967 46.304 21.1204 46.0739C21.2766 45.8409 21.386 45.5739 21.4485 45.2727H22.5053C22.4258 45.7187 22.2809 46.1179 22.0707 46.4702C21.8604 46.8224 21.5991 47.1222 21.2866 47.3693C20.9741 47.6136 20.6232 47.7997 20.234 47.9276C19.8477 48.0554 19.4343 48.1193 18.994 48.1193C18.2496 48.1193 17.5877 47.9375 17.0082 47.5739C16.4286 47.2102 15.9727 46.6932 15.6403 46.0227C15.3079 45.3523 15.1417 44.5568 15.1417 43.6364C15.1417 42.7159 15.3079 41.9205 15.6403 41.25C15.9727 40.5795 16.4286 40.0625 17.0082 39.6989C17.5877 39.3352 18.2496 39.1534 18.994 39.1534C19.4343 39.1534 19.8477 39.2173 20.234 39.3452C20.6232 39.473 20.9741 39.6605 21.2866 39.9077C21.5991 40.152 21.8604 40.4503 22.0707 40.8026C22.2809 41.152 22.4258 41.5511 22.5053 42ZM24.2131 48V39.2727H25.2699V43.6023H25.3722L29.2926 39.2727H30.6733L27.0085 43.2102L30.6733 48H29.3949L26.3608 43.9432L25.2699 45.1705V48H24.2131ZM34.9389 40.2102V39.2727H41.4844V40.2102H38.7401V48H37.6832V40.2102H34.9389ZM42.4538 48H41.3459L44.5504 39.2727H45.6413L48.8459 48H47.7379L45.13 40.6534H45.0618L42.4538 48ZM42.8629 44.5909H47.3288V45.5284H42.8629V44.5909ZM50.2053 48V39.2727H53.1541C53.8359 39.2727 54.3956 39.3892 54.8331 39.6222C55.2706 39.8523 55.5945 40.169 55.8047 40.5724C56.0149 40.9759 56.12 41.4347 56.12 41.9489C56.12 42.4631 56.0149 42.919 55.8047 43.3168C55.5945 43.7145 55.272 44.027 54.8374 44.2543C54.4027 44.4787 53.8473 44.5909 53.1712 44.5909H50.7848V43.6364H53.1371C53.603 43.6364 53.978 43.5682 54.2621 43.4318C54.549 43.2955 54.7564 43.1023 54.8842 42.8523C55.0149 42.5994 55.0803 42.2983 55.0803 41.9489C55.0803 41.5994 55.0149 41.294 54.8842 41.0327C54.7536 40.7713 54.5447 40.5696 54.2578 40.4276C53.9709 40.2827 53.5916 40.2102 53.12 40.2102H51.2621V48H50.2053ZM54.3132 44.0795L56.4609 48H55.2337L53.12 44.0795H54.3132ZM63.8469 42C63.7532 41.7131 63.6296 41.456 63.4762 41.2287C63.3256 40.9986 63.1452 40.8026 62.935 40.6406C62.7276 40.4787 62.4918 40.3551 62.2276 40.2699C61.9634 40.1847 61.6737 40.142 61.3583 40.142C60.8413 40.142 60.3711 40.2756 59.9478 40.5426C59.5245 40.8097 59.1879 41.2031 58.9379 41.723C58.6879 42.2429 58.5629 42.8807 58.5629 43.6364C58.5629 44.392 58.6893 45.0298 58.9421 45.5497C59.195 46.0696 59.5373 46.4631 59.9691 46.7301C60.4009 46.9972 60.8867 47.1307 61.4265 47.1307C61.9265 47.1307 62.3668 47.0241 62.7475 46.8111C63.131 46.5952 63.4293 46.2912 63.6424 45.8991C63.8583 45.5043 63.9663 45.0398 63.9663 44.5057L64.2901 44.5739H61.6651V43.6364H64.989V44.5739C64.989 45.2926 64.8356 45.9176 64.5288 46.4489C64.2248 46.9801 63.8043 47.392 63.2674 47.6847C62.7333 47.9744 62.1197 48.1193 61.4265 48.1193C60.6538 48.1193 59.9748 47.9375 59.3896 47.5739C58.8072 47.2102 58.3526 46.6932 58.0259 46.0227C57.7021 45.3523 57.5401 44.5568 57.5401 43.6364C57.5401 42.946 57.6325 42.3253 57.8171 41.7741C58.0046 41.2202 58.2688 40.7486 58.6097 40.3594C58.9506 39.9702 59.354 39.6719 59.82 39.4645C60.2859 39.2571 60.7987 39.1534 61.3583 39.1534C61.8185 39.1534 62.2475 39.223 62.6452 39.3622C63.0458 39.4986 63.4023 39.6932 63.7148 39.946C64.0302 40.196 64.293 40.4957 64.5032 40.8452C64.7134 41.1918 64.8583 41.5767 64.9379 42H63.8469ZM66.799 48V39.2727H72.0661V40.2102H67.8558V43.1591H71.7933V44.0966H67.8558V47.0625H72.1342V48H66.799ZM73.4936 40.2102V39.2727H80.0391V40.2102H77.2947V48H76.2379V40.2102H73.4936Z" fill="white" fill-opacity="0.7"/>
</svg>
